<?xml version="1.0" standalone="no"?>
<!DOCTYPE svg PUBLIC "-//W3C//DTD SVG 20010904//EN"
 "http://www.w3.org/TR/2001/REC-SVG-20010904/DTD/svg10.dtd">
<svg version="1.0" xmlns="http://www.w3.org/2000/svg"
 width="500.000000pt" height="500.000000pt" viewBox="0 0 500.000000 500.000000"
 preserveAspectRatio="xMidYMid meet">

<g transform="translate(0.000000,500.000000) scale(0.100000,-0.100000)"
fill="#000000" stroke="none">
<path d="M0 2500 l0 -2500 2500 0 2500 0 0 2500 0 2500 -2500 0 -2500 0 0
-2500z m2480 1506 c0 -7 -9 -16 -21 -19 -20 -5 -21 -10 -14 -66 6 -51 4 -61
-8 -61 -19 0 -27 21 -27 76 0 37 -3 44 -20 44 -11 0 -20 6 -20 14 0 14 11 16
93 24 9 1 17 -4 17 -12z m108 -19 c2 -19 11 -29 27 -33 31 -8 45 2 45 32 0 25
14 32 25 13 4 -5 4 -41 0 -79 -5 -53 -10 -67 -21 -63 -8 3 -14 18 -14 33 0 20
-6 29 -22 34 -40 10 -47 7 -50 -26 -3 -37 -21 -41 -26 -7 -7 41 9 130 21 126
7 -2 13 -16 15 -30z m256 18 c-6 -16 -34 -21 -34 -7 0 13 11 22 26 22 8 0 11
-6 8 -15z m-566 -79 c23 -34 42 -66 42 -69 0 -12 -27 -7 -39 6 -15 19 -69 9
-76 -14 -5 -15 -35 -29 -35 -16 0 9 22 124 26 140 10 33 39 16 82 -47z m592
26 c0 -11 -8 -13 -35 -8 -27 5 -35 4 -35 -7 0 -8 12 -18 26 -21 33 -9 26 -30
-11 -31 -40 0 -44 -24 -6 -31 17 -4 31 -13 31 -20 0 -17 -13 -17 -62 -4 -35
10 -36 12 -28 43 5 17 14 50 19 73 l11 41 45 -10 c28 -6 45 -16 45 -25z m-786
-71 c30 -74 31 -81 13 -81 -8 0 -22 19 -33 41 l-18 42 -9 -33 c-8 -33 -14 -34
-60 -15 -17 7 -18 6 -2 -30 10 -26 12 -42 5 -49 -14 -14 -23 -2 -50 67 -28 72
-16 89 38 55 36 -22 51 -15 52 24 0 15 29 53 35 46 2 -2 15 -32 29 -67z m956
19 c12 -12 20 -33 20 -55 0 -87 -114 -105 -143 -22 -8 22 8 66 31 83 25 20 69
17 92 -6z m-540 -362 c19 0 89 3 155 7 190 12 338 -21 519 -113 98 -50 206
-132 276 -208 l45 -49 -38 -3 c-35 -3 -44 2 -106 61 -87 82 -142 119 -244 167
-112 53 -221 79 -352 87 l-110 6 102 -52 c110 -55 220 -137 293 -217 l45 -49
-38 -3 c-35 -3 -44 2 -106 61 -114 107 -230 175 -374 218 l-69 20 -68 -20
c-145 -44 -366 -180 -416 -256 -13 -20 -25 -25 -55 -25 -22 0 -39 4 -39 8 0 5
35 42 78 84 85 83 192 157 291 200 l66 29 -110 -5 c-140 -7 -244 -34 -371 -96
-103 -50 -240 -149 -270 -195 -13 -20 -25 -25 -55 -25 -22 0 -39 4 -39 9 0 4
37 44 83 87 159 153 320 231 577 278 14 3 86 2 160 -1 74 -3 151 -5 170 -5z
m-587 -839 c70 -90 131 -165 136 -167 5 -2 69 74 142 168 73 94 138 169 143
167 7 -2 12 -106 14 -310 l2 -307 -65 0 -65 0 0 140 c0 77 -3 140 -7 140 -5
-1 -41 -43 -82 -95 -60 -77 -77 -93 -88 -83 -8 6 -44 50 -81 96 l-67 84 -5
-138 -5 -139 -65 0 -65 0 -3 285 c-3 293 0 334 21 328 7 -3 69 -78 140 -169z
m1263 132 c74 -33 112 -110 101 -204 -8 -66 -41 -120 -91 -148 -33 -19 -60
-24 -138 -27 l-98 -4 0 -99 0 -99 -64 0 c-49 0 -65 4 -70 16 -8 21 -8 569 1
577 3 4 76 7 162 7 130 0 163 -4 197 -19z m-1580 -955 c121 -123 227 -193 374
-247 87 -31 239 -59 325 -59 l50 1 -75 37 c-41 21 -102 55 -135 77 -64 42
-235 205 -254 243 -11 21 -10 22 20 22 26 0 44 -13 105 -74 121 -123 226 -193
375 -247 101 -37 150 -36 254 6 128 51 224 114 329 218 86 84 104 97 133 97
l34 0 -22 -32 c-34 -49 -167 -179 -224 -218 -27 -19 -90 -57 -140 -83 l-90
-48 94 6 c257 16 444 99 625 278 86 84 104 97 133 97 l34 0 -22 -32 c-38 -55
-171 -182 -237 -227 -200 -135 -465 -201 -692 -172 -63 8 -112 8 -189 0 -260
-30 -528 48 -737 212 -65 51 -176 165 -194 199 -10 18 -8 20 21 20 26 0 44
-13 105 -74z m511 -657 c45 -17 55 -45 26 -74 -11 -11 -26 -15 -45 -11 -24 5
-30 1 -41 -24 -8 -19 -16 -27 -24 -22 -16 10 23 142 42 142 8 0 26 -5 42 -11z
m813 -14 c7 -8 10 -26 8 -40 -4 -20 2 -31 24 -49 44 -34 11 -42 -37 -9 l-38
26 6 -37 c5 -31 3 -37 -10 -34 -18 3 -57 113 -49 135 4 11 28 18 67 22 9 0 22
-6 29 -14z m-600 -55 c27 -50 -11 -120 -65 -120 -32 0 -75 41 -75 72 0 30 26
67 54 77 27 10 73 -6 86 -29z m450 26 c0 -8 -13 -17 -29 -21 -36 -8 -32 -34 3
-28 25 5 47 -14 24 -21 -44 -13 -47 -16 -41 -32 4 -12 14 -14 34 -10 35 7 41
-18 7 -28 -59 -15 -65 -10 -78 60 -12 71 -9 80 30 87 45 8 50 7 50 -7z m-350
-42 c0 -20 5 -24 30 -24 23 0 31 5 36 25 3 14 12 25 20 25 15 0 20 -82 8 -127
-10 -37 -34 -28 -34 12 0 33 -2 35 -35 35 -33 0 -35 -2 -35 -35 0 -24 -5 -35
-15 -35 -12 0 -15 15 -15 73 0 41 3 76 6 80 12 12 34 -6 34 -29z m202 -22 c-3
-32 1 -59 8 -68 15 -17 13 -20 -22 -29 l-27 -7 6 56 c4 37 2 61 -6 70 -17 20
-4 38 22 34 20 -3 22 -8 19 -56z"/>
<path d="M2220 3921 c0 -12 6 -21 15 -21 8 0 15 4 15 9 0 5 -7 14 -15 21 -13
10 -15 9 -15 -9z"/>
<path d="M2960 3876 c-28 -35 11 -93 48 -70 35 22 22 84 -18 84 -10 0 -23 -7
-30 -14z"/>
<path d="M2957 2733 c-4 -3 -7 -42 -7 -86 l0 -79 76 4 c65 3 79 7 95 27 21 25
25 72 9 101 -6 11 -27 24 -48 30 -42 11 -115 13 -125 3z"/>
<path d="M2075 1190 c-4 -6 -3 -14 0 -20 9 -15 35 -12 35 4 0 17 -27 29 -35
16z"/>
<path d="M2863 1175 c-3 -9 -3 -18 -1 -21 9 -9 38 8 38 22 0 19 -29 18 -37 -1z"/>
<path d="M2218 1125 c-10 -22 -9 -29 10 -48 17 -17 26 -19 39 -11 46 29 40 76
-10 82 -21 3 -30 -3 -39 -23z"/>
</g>
</svg>
